<svg width="40" height="40" viewBox="0 0 40 40" fill="none" xmlns="http://www.w3.org/2000/svg">
<path d="M9.99996 31.666V16.666C9.99996 14.0139 11.0535 11.4703 12.9289 9.59495C14.8043 7.71958 17.3478 6.66602 20 6.66602C22.6521 6.66602 25.1957 7.71958 27.071 9.59495C28.9464 11.4703 30 14.0139 30 16.666V31.666M9.99996 31.666H30M9.99996 31.666H6.66663M30 31.666H33.3333M18.3333 36.666H21.6666" stroke="white" stroke-width="4.33333" stroke-linecap="round" stroke-linejoin="round"/>
<path d="M19.9999 6.66634C20.9204 6.66634 21.6666 5.92015 21.6666 4.99967C21.6666 4.0792 20.9204 3.33301 19.9999 3.33301C19.0794 3.33301 18.3333 4.0792 18.3333 4.99967C18.3333 5.92015 19.0794 6.66634 19.9999 6.66634Z" stroke="white" stroke-width="4.33333"/>
<path d="M9.99996 31.666V16.666C9.99996 14.0139 11.0535 11.4703 12.9289 9.59495C14.8043 7.71958 17.3478 6.66602 20 6.66602C22.6521 6.66602 25.1957 7.71958 27.071 9.59495C28.9464 11.4703 30 14.0139 30 16.666V31.666M9.99996 31.666H30M9.99996 31.666H6.66663M30 31.666H33.3333M18.3333 36.666H21.6666" stroke="white" stroke-width="3.25" stroke-linecap="round" stroke-linejoin="round"/>
<path d="M19.9999 6.66634C20.9204 6.66634 21.6666 5.92015 21.6666 4.99967C21.6666 4.0792 20.9204 3.33301 19.9999 3.33301C19.0794 3.33301 18.3333 4.0792 18.3333 4.99967C18.3333 5.92015 19.0794 6.66634 19.9999 6.66634Z" stroke="white" stroke-width="3.25"/>
</svg>
