<svg width="64" height="64" viewBox="0 0 64 64" fill="none" xmlns="http://www.w3.org/2000/svg">
<path d="M19.3333 18.667C19.3333 19.771 20.2293 20.667 21.3333 20.667H42.6666C43.197 20.667 43.7057 20.4563 44.0808 20.0812C44.4559 19.7061 44.6666 19.1974 44.6666 18.667C44.6666 18.1366 44.4559 17.6279 44.0808 17.2528C43.7057 16.8777 43.197 16.667 42.6666 16.667H21.3333C20.8028 16.667 20.2941 16.8777 19.919 17.2528C19.544 17.6279 19.3333 18.1366 19.3333 18.667ZM31.9999 47.3337C32.5304 47.3337 33.0391 47.1229 33.4141 46.7479C33.7892 46.3728 33.9999 45.8641 33.9999 45.3337V31.4937L38.5866 36.0803C38.7697 36.2768 38.9905 36.4344 39.2358 36.5437C39.4811 36.6531 39.746 36.7118 40.0145 36.7166C40.2831 36.7213 40.5498 36.6719 40.7988 36.5713C41.0479 36.4707 41.2741 36.321 41.464 36.1311C41.6539 35.9412 41.8037 35.715 41.9042 35.4659C42.0048 35.2169 42.0542 34.9501 42.0495 34.6816C42.0448 34.4131 41.986 34.1482 41.8767 33.9029C41.7674 33.6576 41.6098 33.4368 41.4133 33.2537L33.4133 25.2537C33.0383 24.8791 32.5299 24.6688 31.9999 24.6688C31.4699 24.6688 30.9616 24.8791 30.5866 25.2537L22.5866 33.2537C22.3901 33.4368 22.2325 33.6576 22.1232 33.9029C22.0139 34.1482 21.9551 34.4131 21.9503 34.6816C21.9456 34.9501 21.995 35.2169 22.0956 35.4659C22.1962 35.715 22.3459 35.9412 22.5358 36.1311C22.7257 36.321 22.952 36.4707 23.201 36.5713C23.45 36.6719 23.7168 36.7213 23.9853 36.7166C24.2539 36.7118 24.5187 36.6531 24.764 36.5437C25.0094 36.4344 25.2302 36.2768 25.4133 36.0803L29.9999 31.4937V45.3337C29.9999 46.4377 30.8959 47.3337 31.9999 47.3337Z" fill="black"/>
<path fill-rule="evenodd" clip-rule="evenodd" d="M31.8479 3.33301C25.6906 3.33301 20.8666 3.33301 17.1013 3.83967C13.2506 4.35701 10.2106 5.43967 7.82392 7.82367C5.43725 10.2103 4.35725 13.2503 3.83992 17.1037C3.33325 20.8663 3.33325 25.6903 3.33325 31.8477V32.1517C3.33325 38.309 3.33325 43.133 3.83992 46.8983C4.35725 50.749 5.43992 53.789 7.82392 56.1757C10.2106 58.5623 13.2506 59.6423 17.1039 60.1597C20.8666 60.6663 25.6906 60.6663 31.8479 60.6663H32.1519C38.3092 60.6663 43.1333 60.6663 46.8986 60.1597C50.7492 59.6423 53.7892 58.5597 56.1759 56.1757C58.5626 53.789 59.6426 50.749 60.1599 46.8957C60.6666 43.133 60.6666 38.309 60.6666 32.1517V31.8477C60.6666 25.6903 60.6666 20.8663 60.1599 17.101C59.6426 13.2503 58.5599 10.2103 56.1759 7.82367C53.7892 5.43701 50.7493 4.35701 46.8959 3.83967C43.1333 3.33301 38.3092 3.33301 32.1519 3.33301H31.8479ZM10.6533 10.653C12.1733 9.13301 14.2266 8.26101 17.6373 7.80234C21.1039 7.33834 25.6586 7.33301 31.9999 7.33301C38.3413 7.33301 42.8959 7.33834 46.3626 7.80234C49.7732 8.26101 51.8293 9.13567 53.3493 10.653C54.8666 12.173 55.7386 14.2263 56.1972 17.637C56.6612 21.1037 56.6666 25.6583 56.6666 31.9997C56.6666 38.341 56.6612 42.8957 56.1972 46.3623C55.7386 49.773 54.8639 51.829 53.3466 53.349C51.8266 54.8663 49.7732 55.7383 46.3626 56.197C42.8959 56.661 38.3413 56.6663 31.9999 56.6663C25.6586 56.6663 21.1039 56.661 17.6373 56.197C14.2266 55.7383 12.1706 54.8637 10.6506 53.3463C9.13325 51.8263 8.26125 49.773 7.80259 46.3623C7.33859 42.8957 7.33325 38.341 7.33325 31.9997C7.33325 25.6583 7.33859 21.1037 7.80259 17.637C8.26125 14.2263 9.13592 12.173 10.6533 10.653Z" fill="black"/>
</svg>
