<svg width="52" height="52" viewBox="0 0 52 52" fill="none" xmlns="http://www.w3.org/2000/svg">
<path d="M12.9998 41.1665V21.6665C12.9998 18.2187 14.3695 14.9121 16.8074 12.4741C19.2454 10.0361 22.552 8.6665 25.9998 8.6665C29.4477 8.6665 32.7543 10.0361 35.1922 12.4741C37.6302 14.9121 38.9998 18.2187 38.9998 21.6665V41.1665M12.9998 41.1665H38.9998M12.9998 41.1665H8.6665M38.9998 41.1665H43.3332M23.8332 47.6665H28.1665" stroke="white" stroke-width="4.33333" stroke-linecap="round" stroke-linejoin="round"/>
<path d="M25.9997 8.66659C27.1963 8.66659 28.1663 7.69654 28.1663 6.49992C28.1663 5.3033 27.1963 4.33325 25.9997 4.33325C24.8031 4.33325 23.833 5.3033 23.833 6.49992C23.833 7.69654 24.8031 8.66659 25.9997 8.66659Z" stroke="white" stroke-width="4.33333"/>
<path d="M12.9998 41.1665V21.6665C12.9998 18.2187 14.3695 14.9121 16.8074 12.4741C19.2454 10.0361 22.552 8.6665 25.9998 8.6665C29.4477 8.6665 32.7543 10.0361 35.1922 12.4741C37.6302 14.9121 38.9998 18.2187 38.9998 21.6665V41.1665M12.9998 41.1665H38.9998M12.9998 41.1665H8.6665M38.9998 41.1665H43.3332M23.8332 47.6665H28.1665" stroke="white" stroke-width="3.25" stroke-linecap="round" stroke-linejoin="round"/>
<path d="M25.9997 8.66659C27.1963 8.66659 28.1663 7.69654 28.1663 6.49992C28.1663 5.3033 27.1963 4.33325 25.9997 4.33325C24.8031 4.33325 23.833 5.3033 23.833 6.49992C23.833 7.69654 24.8031 8.66659 25.9997 8.66659Z" stroke="white" stroke-width="3.25"/>
</svg>
