<svg width="52" height="52" viewBox="0 0 52 52" fill="none" xmlns="http://www.w3.org/2000/svg">
<path d="M8.66683 43.3334C7.47516 43.3334 6.45539 42.9095 5.6075 42.0616C4.75961 41.2137 4.33494 40.1932 4.3335 39.0001V13.0001C4.3335 11.8084 4.75816 10.7886 5.6075 9.94075C6.45683 9.09286 7.47661 8.66819 8.66683 8.66675H21.6668L26.0002 13.0001H43.3335C44.5252 13.0001 45.5457 13.4247 46.395 14.2741C47.2443 15.1234 47.6683 16.1432 47.6668 17.3334V24.4834C46.9807 24.1945 46.2679 24.0053 45.5283 23.9157C44.7888 23.8262 44.0572 23.8349 43.3335 23.9417V17.3334H24.2127L19.8793 13.0001H8.66683V39.0001H26.2168L26.0002 39.2167V43.3334H8.66683ZM30.3335 47.6667V41.0042L42.3043 29.0876C42.6293 28.7626 42.9904 28.5279 43.3877 28.3834C43.7849 28.239 44.1821 28.1667 44.5793 28.1667C45.0127 28.1667 45.4279 28.2484 45.8252 28.4116C46.2224 28.5748 46.5835 28.8182 46.9085 29.1417L48.9127 31.1459C49.2016 31.4709 49.4276 31.832 49.5908 32.2292C49.7541 32.6265 49.8349 33.0237 49.8335 33.4209C49.8321 33.8181 49.7598 34.2247 49.6168 34.6407C49.4738 35.0567 49.2391 35.4265 48.9127 35.7501L36.996 47.6667H30.3335ZM33.5835 44.4167H35.6418L42.196 37.8084L41.221 36.7792L40.1918 35.8042L33.5835 42.3584V44.4167ZM41.221 36.7792L40.1918 35.8042L42.196 37.8084L41.221 36.7792Z" fill="white"/>
</svg>
