<svg width="52" height="52" viewBox="0 0 52 52" fill="none" xmlns="http://www.w3.org/2000/svg">
<path d="M8.66683 43.3334C7.47516 43.3334 6.45539 42.9095 5.6075 42.0616C4.75961 41.2137 4.33494 40.1932 4.3335 39.0001V13.0001C4.3335 11.8084 4.75816 10.7886 5.6075 9.94075C6.45683 9.09286 7.47661 8.66819 8.66683 8.66675H19.8793C20.4571 8.66675 21.0082 8.77508 21.5325 8.99175C22.0568 9.20841 22.5169 9.51536 22.9127 9.91258L26.0002 13.0001H43.3335C44.5252 13.0001 45.5457 13.4247 46.395 14.2741C47.2443 15.1234 47.6683 16.1432 47.6668 17.3334V39.0001C47.6668 40.1917 47.2429 41.2122 46.395 42.0616C45.5471 42.9109 44.5266 43.3349 43.3335 43.3334H8.66683ZM8.66683 39.0001H43.3335V17.3334H24.2127L19.8793 13.0001H8.66683V39.0001Z" fill="white"/>
</svg>
