<svg width="33" height="33" viewBox="0 0 33 33" fill="none" xmlns="http://www.w3.org/2000/svg">
<path d="M29.2187 16.5001H12.2306M6.23425 16.5001H3.78125M6.23425 16.5001C6.23425 15.7051 6.55006 14.9427 7.1122 14.3805C7.67434 13.8184 8.43676 13.5026 9.23175 13.5026C10.0267 13.5026 10.7892 13.8184 11.3513 14.3805C11.9134 14.9427 12.2292 15.7051 12.2292 16.5001C12.2292 17.2951 11.9134 18.0575 11.3513 18.6196C10.7892 19.1818 10.0267 19.4976 9.23175 19.4976C8.43676 19.4976 7.67434 19.1818 7.1122 18.6196C6.55006 18.0575 6.23425 17.2951 6.23425 16.5001ZM29.2187 25.5847H21.3152M21.3152 25.5847C21.3152 26.3799 20.9987 27.1432 20.4364 27.7054C19.8741 28.2677 19.1115 28.5836 18.3164 28.5836C17.5214 28.5836 16.759 28.2664 16.1968 27.7043C15.6347 27.1421 15.3189 26.3797 15.3189 25.5847M21.3152 25.5847C21.3152 24.7896 20.9987 24.0276 20.4364 23.4654C19.8741 22.9031 19.1115 22.5872 18.3164 22.5872C17.5214 22.5872 16.759 22.903 16.1968 23.4652C15.6347 24.0273 15.3189 24.7897 15.3189 25.5847M15.3189 25.5847H3.78125M29.2187 7.41547H24.9494M18.953 7.41547H3.78125M18.953 7.41547C18.953 6.62048 19.2688 5.85806 19.8309 5.29592C20.3931 4.73378 21.1555 4.41797 21.9505 4.41797C22.3441 4.41797 22.7339 4.4955 23.0976 4.64614C23.4613 4.79678 23.7917 5.01757 24.0701 5.29592C24.3484 5.57426 24.5692 5.9047 24.7198 6.26838C24.8705 6.63205 24.948 7.02183 24.948 7.41547C24.948 7.80911 24.8705 8.19889 24.7198 8.56256C24.5692 8.92624 24.3484 9.25668 24.0701 9.53502C23.7917 9.81336 23.4613 10.0342 23.0976 10.1848C22.7339 10.3354 22.3441 10.413 21.9505 10.413C21.1555 10.413 20.3931 10.0972 19.8309 9.53502C19.2688 8.97288 18.953 8.21046 18.953 7.41547Z" stroke="black" stroke-width="1.5" stroke-miterlimit="10" stroke-linecap="round"/>
</svg>
