<svg width="32" height="32" viewBox="0 0 32 32" fill="none" xmlns="http://www.w3.org/2000/svg">
<path d="M7.53943 29C6.83543 29 6.23619 28.7727 5.74171 28.3182C5.24724 27.8637 5 27.3134 5 26.6672V13.9994C5 13.3543 5.24724 12.8039 5.74171 12.3484C6.23619 11.8939 6.83543 11.6667 7.53943 11.6667H9.71429V8.77778C9.71429 7.16867 10.3245 5.80367 11.545 4.68278C12.7644 3.56093 14.2494 3 16 3C17.7506 3 19.2361 3.56093 20.4566 4.68278C21.677 5.80463 22.2868 7.16963 22.2857 8.77778V11.6667H24.4621C25.164 11.6667 25.7628 11.8939 26.2583 12.3484C26.7528 12.803 27 13.3538 27 14.0009V26.6672C27 27.3124 26.7528 27.8627 26.2583 28.3182C25.7638 28.7727 25.1651 29 24.4621 29H7.53943ZM7.53943 27.5556H24.4621C24.744 27.5556 24.9755 27.4723 25.1567 27.3057C25.338 27.1391 25.4286 26.9263 25.4286 26.6672V13.9994C25.4286 13.7404 25.338 13.5276 25.1567 13.361C24.9755 13.1944 24.744 13.1111 24.4621 13.1111H7.53786C7.25605 13.1111 7.02452 13.1944 6.84329 13.361C6.66205 13.5276 6.57143 13.7409 6.57143 14.0009V26.6672C6.57143 26.9263 6.66205 27.1391 6.84329 27.3057C7.02452 27.4723 7.25657 27.5556 7.53943 27.5556ZM16 22.5C16.6631 22.5 17.2215 22.291 17.6751 21.8731C18.1298 21.4561 18.3571 20.9429 18.3571 20.3333C18.3571 19.7238 18.1298 19.2105 17.6751 18.7936C17.2205 18.3766 16.6621 18.1676 16 18.1667C15.3379 18.1657 14.7795 18.3747 14.3249 18.7936C13.8702 19.2105 13.6429 19.7238 13.6429 20.3333C13.6429 20.9429 13.8702 21.4561 14.3249 21.8731C14.7785 22.291 15.3369 22.5 16 22.5ZM11.2857 11.6667H20.7143V8.77778C20.7143 7.57407 20.256 6.55093 19.3393 5.70833C18.4226 4.86574 17.3095 4.44444 16 4.44444C14.6905 4.44444 13.5774 4.86574 12.6607 5.70833C11.744 6.55093 11.2857 7.57407 11.2857 8.77778V11.6667Z" fill="black" fill-opacity="0.7"/>
</svg>
