<svg width="32" height="32" viewBox="0 0 32 32" fill="none" xmlns="http://www.w3.org/2000/svg">
<path d="M6.42105 5H25.5789C26.7515 5 27.876 5.46357 28.7051 6.28873C29.5342 7.11389 30 8.23305 30 9.4V22.6C30 23.767 29.5342 24.8861 28.7051 25.7113C27.876 26.5364 26.7515 27 25.5789 27H6.42105C5.24852 27 4.124 26.5364 3.2949 25.7113C2.46579 24.8861 2 23.767 2 22.6V9.4C2 8.23305 2.46579 7.11389 3.2949 6.28873C4.124 5.46357 5.24852 5 6.42105 5ZM6.42105 6.46667C5.68421 6.46667 5.03579 6.716 4.53474 7.156L16 14.5333L27.4653 7.156C26.9642 6.716 26.3158 6.46667 25.5789 6.46667H6.42105ZM16 16.308L3.66526 8.344C3.54737 8.66667 3.47368 9.03333 3.47368 9.4V22.6C3.47368 23.378 3.78421 24.1241 4.33695 24.6742C4.88969 25.2243 5.63936 25.5333 6.42105 25.5333H25.5789C26.3606 25.5333 27.1103 25.2243 27.6631 24.6742C28.2158 24.1241 28.5263 23.378 28.5263 22.6V9.4C28.5263 9.03333 28.4526 8.66667 28.3347 8.344L16 16.308Z" fill="black" fill-opacity="0.7"/>
</svg>
