<svg width="32" height="32" viewBox="0 0 32 32" fill="none" xmlns="http://www.w3.org/2000/svg">
<path fill-rule="evenodd" clip-rule="evenodd" d="M19.676 3.49463C20.8469 2.32379 22.4349 1.66602 24.0907 1.66602C25.7465 1.66602 27.3345 2.32379 28.5054 3.49463C29.6762 4.66547 30.334 6.25348 30.334 7.9093C30.334 9.56512 29.6762 11.1531 28.5054 12.324L22.1814 18.648L15.8574 24.972C15.1347 25.6946 14.7107 26.1186 14.236 26.488C13.6778 26.9253 13.0778 27.2964 12.436 27.6013C11.8947 27.8586 11.324 28.0493 10.356 28.372L5.91336 29.852L4.84402 30.2093C4.41873 30.3513 3.96229 30.372 3.52589 30.269C3.08949 30.1661 2.6904 29.9437 2.37335 29.6266C2.05631 29.3096 1.83386 28.9105 1.73094 28.4741C1.62802 28.0377 1.64871 27.5813 1.79069 27.156L3.62802 21.6453C3.95069 20.676 4.14136 20.1053 4.39869 19.5626C4.70447 18.9226 5.07558 18.3226 5.51202 17.7626C5.88002 17.2906 6.30536 16.8653 7.02802 16.1426L19.676 3.49463ZM5.86669 27.7613L9.65469 26.4973C10.7094 26.1453 11.1574 25.9946 11.5747 25.796C12.0831 25.5524 12.56 25.2577 13.0054 24.912C13.3694 24.6266 13.7054 24.2946 14.492 23.508L24.5854 13.4146C23.2015 12.9243 21.9453 12.1296 20.9094 11.0893C19.87 10.0531 19.0763 8.7969 18.5867 7.4133L8.49336 17.5066C7.70669 18.292 7.37336 18.6266 7.08936 18.992C6.74269 19.4364 6.44802 19.9133 6.20536 20.4226C6.00669 20.84 5.85602 21.288 5.50402 22.3426L4.24002 26.1333L5.86669 27.7613ZM20.2067 5.79063C20.2534 6.02396 20.3294 6.3413 20.4587 6.71063C20.8488 7.82669 21.487 8.83969 22.3254 9.6733C23.1586 10.5115 24.1711 11.1497 25.2867 11.54C25.6574 11.6693 25.9747 11.7453 26.208 11.792L27.0907 10.9093C27.8817 10.1127 28.3248 9.03502 28.3229 7.91237C28.3209 6.78972 27.874 5.71361 27.0802 4.91978C26.2864 4.12594 25.2103 3.6791 24.0876 3.67714C22.965 3.67517 21.8873 4.11824 21.0907 4.9093L20.2067 5.79063Z" fill="black" fill-opacity="0.7"/>
</svg>
