<svg width="14" height="14" viewBox="0 0 14 14" fill="none" xmlns="http://www.w3.org/2000/svg">
<path fill-rule="evenodd" clip-rule="evenodd" d="M7.25555 1.62053C7.17123 1.59388 7.07994 1.60013 7.00005 1.63803C6.96059 1.65651 6.92559 1.68326 6.8974 1.71648C6.86922 1.7497 6.84852 1.7886 6.83671 1.83053L6.55905 2.90036C6.46193 3.27422 6.32095 3.63528 6.13905 3.97603C5.85613 4.50511 5.42855 4.9117 5.03188 5.25353L4.19305 5.97686C4.12895 6.03227 4.07889 6.10207 4.04695 6.18055C4.01501 6.25902 4.00211 6.34394 4.0093 6.42836L4.48296 11.9076C4.49448 12.0407 4.55543 12.1646 4.65379 12.255C4.75216 12.3454 4.8808 12.3956 5.01438 12.3959H7.7263C9.55563 12.3959 11.0974 11.123 11.3931 9.41328L11.8044 7.03328C11.8177 6.95658 11.8141 6.87789 11.7939 6.80272C11.7736 6.72755 11.7372 6.65771 11.6872 6.59809C11.6371 6.53847 11.5746 6.49051 11.5041 6.45756C11.4335 6.42462 11.3566 6.40749 11.2788 6.40736H8.25655C7.68663 6.40736 7.25321 5.89636 7.34538 5.33403L7.73213 2.97503C7.78563 2.65195 7.77053 2.32122 7.6878 2.00436C7.66435 1.92058 7.62023 1.84404 7.55948 1.78176C7.49873 1.71948 7.4233 1.67347 7.34013 1.64795L7.25555 1.62053ZM6.61971 0.849947C6.90187 0.714469 7.22519 0.692135 7.5233 0.787531L7.60788 0.814947C8.06113 0.960781 8.41463 1.32245 8.5348 1.78445C8.64738 2.21961 8.66838 2.67345 8.59546 3.11678L8.20871 5.47578C8.20752 5.48274 8.20787 5.48987 8.20972 5.49668C8.21158 5.50349 8.2149 5.50981 8.21946 5.5152C8.22402 5.5206 8.2297 5.52492 8.2361 5.52789C8.24251 5.53085 8.24949 5.53238 8.25655 5.53236H11.2782C12.1532 5.53236 12.8159 6.32103 12.6665 7.18261L12.2553 9.56261C11.8831 11.7139 9.95813 13.2709 7.7263 13.2709H5.01438C4.66181 13.2706 4.32215 13.1381 4.06244 12.8997C3.80273 12.6613 3.64182 12.3341 3.61146 11.9829L3.13721 6.50361C3.11803 6.2811 3.15191 6.05721 3.23608 5.85034C3.32025 5.64347 3.4523 5.45953 3.62138 5.31361L4.46138 4.59028C4.84346 4.26128 5.16488 3.9422 5.36671 3.56361C5.51672 3.28409 5.63266 2.98759 5.71205 2.68045L5.98971 1.6112C6.03299 1.4461 6.11179 1.29245 6.2206 1.16096C6.32942 1.02948 6.46562 0.923337 6.61971 0.849947ZM1.73138 5.53295C1.84411 5.52802 1.95439 5.56684 2.03918 5.6413C2.12397 5.71576 2.17671 5.8201 2.18638 5.93253L2.75221 12.4869C2.7618 12.5845 2.75139 12.683 2.72161 12.7764C2.69184 12.8699 2.64333 12.9563 2.57905 13.0304C2.51476 13.1044 2.43606 13.1646 2.34773 13.2072C2.25941 13.2499 2.16332 13.274 2.06534 13.2783C1.96736 13.2825 1.86954 13.2668 1.77786 13.2319C1.68617 13.1971 1.60255 13.144 1.5321 13.0757C1.46165 13.0075 1.40584 12.9256 1.36809 12.8351C1.33034 12.7446 1.31144 12.6473 1.31255 12.5493V5.96986C1.31244 5.85699 1.35597 5.74845 1.43402 5.66692C1.51207 5.58539 1.61861 5.53776 1.73138 5.53295Z" fill="black"/>
</svg>
