<svg width="32" height="32" viewBox="0 0 32 32" fill="none" xmlns="http://www.w3.org/2000/svg">
<path fill-rule="evenodd" clip-rule="evenodd" d="M16.0002 1.66699C14.3205 1.66699 12.7096 2.33425 11.5219 3.52198C10.3342 4.70971 9.6669 6.32062 9.6669 8.00033C9.6669 9.68003 10.3342 11.2909 11.5219 12.4787C12.7096 13.6664 14.3205 14.3337 16.0002 14.3337C17.6799 14.3337 19.2909 13.6664 20.4786 12.4787C21.6663 11.2909 22.3336 9.68003 22.3336 8.00033C22.3336 6.32062 21.6663 4.70971 20.4786 3.52198C19.2909 2.33425 17.6799 1.66699 16.0002 1.66699ZM11.6669 8.00033C11.6669 6.85105 12.1235 5.74885 12.9361 4.9362C13.7488 4.12354 14.851 3.66699 16.0002 3.66699C17.1495 3.66699 18.2517 4.12354 19.0644 4.9362C19.877 5.74885 20.3336 6.85105 20.3336 8.00033C20.3336 9.1496 19.877 10.2518 19.0644 11.0645C18.2517 11.8771 17.1495 12.3337 16.0002 12.3337C14.851 12.3337 13.7488 11.8771 12.9361 11.0645C12.1235 10.2518 11.6669 9.1496 11.6669 8.00033ZM16.0002 16.3337C12.9162 16.3337 10.0736 17.035 7.96824 18.219C5.89357 19.387 4.33357 21.155 4.33357 23.3337V23.4697C4.33224 25.019 4.3309 26.963 6.03624 28.3523C6.8749 29.035 8.04957 29.5217 9.63624 29.8417C11.2256 30.1643 13.2989 30.3337 16.0002 30.3337C18.7016 30.3337 20.7736 30.1643 22.3656 29.8417C23.9522 29.5217 25.1256 29.035 25.9656 28.3523C27.6709 26.963 27.6682 25.019 27.6669 23.4697V23.3337C27.6669 21.155 26.1069 19.387 24.0336 18.219C21.9269 17.035 19.0856 16.3337 16.0002 16.3337ZM6.33357 23.3337C6.33357 22.199 7.1629 20.967 8.94824 19.963C10.7029 18.9763 13.1936 18.3337 16.0016 18.3337C18.8069 18.3337 21.2976 18.9763 23.0522 19.963C24.8389 20.967 25.6669 22.199 25.6669 23.3337C25.6669 25.0777 25.6136 26.059 24.7016 26.8003C24.2082 27.203 23.3816 27.5963 21.9682 27.8817C20.5589 28.167 18.6322 28.3337 16.0002 28.3337C13.3682 28.3337 11.4402 28.167 10.0322 27.8817C8.6189 27.5963 7.79224 27.203 7.2989 26.8017C6.3869 26.059 6.33357 25.0777 6.33357 23.3337Z" fill="black" fill-opacity="0.7"/>
</svg>
