<svg width="64" height="64" viewBox="0 0 64 64" fill="none" xmlns="http://www.w3.org/2000/svg">
<path d="M19.3335 18.6667C19.3335 19.7707 20.2295 20.6667 21.3335 20.6667H42.6668C43.1973 20.6667 43.706 20.456 44.081 20.081C44.4561 19.7059 44.6668 19.1972 44.6668 18.6667C44.6668 18.1363 44.4561 17.6276 44.081 17.2525C43.706 16.8775 43.1973 16.6667 42.6668 16.6667H21.3335C20.8031 16.6667 20.2944 16.8775 19.9193 17.2525C19.5442 17.6276 19.3335 18.1363 19.3335 18.6667ZM32.0002 47.3334C32.5306 47.3334 33.0393 47.1227 33.4144 46.7476C33.7894 46.3726 34.0002 45.8638 34.0002 45.3334V31.4934L38.5868 36.0801C38.7699 36.2766 38.9907 36.4342 39.2361 36.5435C39.4814 36.6528 39.7462 36.7116 40.0148 36.7163C40.2833 36.7211 40.5501 36.6717 40.7991 36.5711C41.0481 36.4705 41.2743 36.3208 41.4643 36.1308C41.6542 35.9409 41.8039 35.7147 41.9045 35.4657C42.0051 35.2166 42.0545 34.9499 42.0497 34.6814C42.045 34.4128 41.9862 34.148 41.8769 33.9026C41.7676 33.6573 41.61 33.4365 41.4135 33.2534L33.4135 25.2534C33.0385 24.8789 32.5302 24.6685 32.0002 24.6685C31.4702 24.6685 30.9618 24.8789 30.5868 25.2534L22.5868 33.2534C22.3903 33.4365 22.2327 33.6573 22.1234 33.9026C22.0141 34.148 21.9553 34.4128 21.9506 34.6814C21.9458 34.9499 21.9952 35.2166 22.0958 35.4657C22.1964 35.7147 22.3461 35.9409 22.5361 36.1308C22.726 36.3208 22.9522 36.4705 23.2012 36.5711C23.4503 36.6717 23.717 36.7211 23.9856 36.7163C24.2541 36.7116 24.5189 36.6528 24.7643 36.5435C25.0096 36.4342 25.2304 36.2766 25.4135 36.0801L30.0002 31.4934V45.3334C30.0002 46.4374 30.8962 47.3334 32.0002 47.3334Z" fill="black"/>
<path fill-rule="evenodd" clip-rule="evenodd" d="M31.8482 3.33325C25.6908 3.33325 20.8668 3.33325 17.1015 3.83992C13.2508 4.35725 10.2108 5.43992 7.82416 7.82392C5.4375 10.2106 4.3575 13.2506 3.84016 17.1039C3.3335 20.8666 3.3335 25.6906 3.3335 31.8479V32.1519C3.3335 38.3092 3.3335 43.1333 3.84016 46.8986C4.3575 50.7492 5.44016 53.7892 7.82416 56.1759C10.2108 58.5626 13.2508 59.6426 17.1042 60.1599C20.8668 60.6666 25.6908 60.6666 31.8482 60.6666H32.1522C38.3095 60.6666 43.1335 60.6666 46.8988 60.1599C50.7495 59.6426 53.7895 58.5599 56.1762 56.1759C58.5628 53.7892 59.6428 50.7493 60.1602 46.8959C60.6668 43.1333 60.6668 38.3092 60.6668 32.1519V31.8479C60.6668 25.6906 60.6668 20.8666 60.1602 17.1013C59.6428 13.2506 58.5602 10.2106 56.1762 7.82392C53.7895 5.43725 50.7495 4.35725 46.8962 3.83992C43.1335 3.33325 38.3095 3.33325 32.1522 3.33325H31.8482ZM10.6535 10.6533C12.1735 9.13325 14.2268 8.26125 17.6375 7.80259C21.1042 7.33859 25.6588 7.33325 32.0002 7.33325C38.3415 7.33325 42.8962 7.33859 46.3628 7.80259C49.7735 8.26125 51.8295 9.13592 53.3495 10.6533C54.8668 12.1733 55.7388 14.2266 56.1975 17.6373C56.6615 21.1039 56.6668 25.6586 56.6668 31.9999C56.6668 38.3413 56.6615 42.8959 56.1975 46.3626C55.7388 49.7732 54.8642 51.8293 53.3468 53.3493C51.8268 54.8666 49.7735 55.7386 46.3628 56.1972C42.8962 56.6612 38.3415 56.6666 32.0002 56.6666C25.6588 56.6666 21.1042 56.6612 17.6375 56.1972C14.2268 55.7386 12.1708 54.8639 10.6508 53.3466C9.1335 51.8266 8.2615 49.7732 7.80283 46.3626C7.33883 42.8959 7.3335 38.3413 7.3335 31.9999C7.3335 25.6586 7.33883 21.1039 7.80283 17.6373C8.2615 14.2266 9.13616 12.1733 10.6535 10.6533Z" fill="black"/>
</svg>
