<svg width="14" height="14" viewBox="0 0 14 14" fill="none" xmlns="http://www.w3.org/2000/svg">
<path d="M0.466558 7.00003L0.0334914 6.82643C-0.0111638 6.93786 -0.0111638 7.06221 0.0334914 7.17363L0.466558 7.00003ZM13.5332 7.00003L13.9663 7.17363C14.0109 7.06221 14.0109 6.93786 13.9663 6.82643L13.5332 7.00003ZM6.99989 11.2C4.84016 11.2 3.32349 10.1248 2.33042 9.02163C1.78809 8.4144 1.33293 7.73463 0.978025 7.0019L0.903358 6.8339L0.899625 6.82737L0.466558 7.00003L0.0334914 7.17363V7.1755L0.0362914 7.17923L0.0605581 7.23803L0.133358 7.3995C0.527106 8.21443 1.03289 8.97028 1.63602 9.6451C2.74389 10.8762 4.49296 12.1334 6.99989 12.1334V11.2ZM0.466558 7.00003L0.899625 7.17363L0.903358 7.16617C0.926401 7.10936 0.951304 7.05333 0.978025 6.99817C1.33293 6.26543 1.78809 5.58566 2.33042 4.97843C3.32256 3.87523 4.84016 2.80003 6.99989 2.80003V1.8667C4.49296 1.8667 2.74296 3.12483 1.63602 4.35497C1.03289 5.02978 0.527106 5.78564 0.133358 6.60057C0.0994281 6.67328 0.0670651 6.74672 0.0362914 6.82083L0.0344247 6.82457V6.8255H0.0325581L0.466558 7.00003ZM6.99989 2.80003C9.15963 2.80003 10.6763 3.87523 11.6694 4.97843C12.2117 5.58566 12.6669 6.26543 13.0218 6.99817L13.0964 7.16617L13.1002 7.1727L13.5332 7.00003L13.9663 6.82643V6.82457L13.9635 6.82083L13.9392 6.76203L13.8664 6.60057C13.4727 5.78564 12.9669 5.02978 12.3638 4.35497C11.2559 3.12483 9.50682 1.8667 6.99989 1.8667V2.80003ZM13.5332 7.00003L13.1002 6.82643L13.0974 6.8339L13.0834 6.86657L13.0218 7.0019C12.6669 7.73463 12.2117 8.4144 11.6694 9.02163C10.6772 10.1248 9.15963 11.2 6.99989 11.2V12.1334C9.50682 12.1334 11.2568 10.8752 12.3638 9.64603C12.967 8.97093 13.4728 8.21476 13.8664 7.3995C13.9004 7.32678 13.9327 7.25334 13.9635 7.17923L13.9654 7.1755V7.17457L13.9663 7.17363L13.5332 7.00003ZM6.99989 8.40003C6.62859 8.40003 6.27249 8.25253 6.00994 7.98998C5.74739 7.72743 5.59989 7.37134 5.59989 7.00003H4.66656C4.66656 7.61887 4.91239 8.21236 5.34998 8.64995C5.78756 9.08753 6.38105 9.33337 6.99989 9.33337V8.40003ZM8.39989 7.00003C8.39989 7.37134 8.25239 7.72743 7.98984 7.98998C7.72729 8.25253 7.37119 8.40003 6.99989 8.40003V9.33337C7.61873 9.33337 8.21222 9.08753 8.64981 8.64995C9.08739 8.21236 9.33323 7.61887 9.33323 7.00003H8.39989ZM6.99989 5.60003C7.37119 5.60003 7.72729 5.74753 7.98984 6.01008C8.25239 6.27263 8.39989 6.62873 8.39989 7.00003H9.33323C9.33323 6.38119 9.08739 5.7877 8.64981 5.35012C8.21222 4.91253 7.61873 4.6667 6.99989 4.6667V5.60003ZM6.99989 4.6667C6.38105 4.6667 5.78756 4.91253 5.34998 5.35012C4.91239 5.7877 4.66656 6.38119 4.66656 7.00003H5.59989C5.59989 6.62873 5.74739 6.27263 6.00994 6.01008C6.27249 5.74753 6.62859 5.60003 6.99989 5.60003V4.6667Z" fill="black"/>
</svg>
